<svg width="107" height="148" viewBox="0 0 107 148" fill="none" xmlns="http://www.w3.org/2000/svg">
<path d="M0.921051 95.0588C0.921051 65.8203 24.4614 42.1176 53.5 42.1176C82.5385 42.1176 106.079 65.8203 106.079 95.0588C106.079 124.297 82.5385 148 53.5 148C24.4614 148 0.921051 124.297 0.921051 95.0588Z" fill="#FFD23E"/>
<path d="M56.0857 48.7718C38.3871 34.8041 11.9348 27.6265 0.921051 25.7835C5.70965 18.7997 19.9414 4.19195 38.5594 1.63121C57.1776 -0.929507 72.1755 4.25015 77.3472 7.16006C84.3387 10.9429 99.8729 21.535 106.079 33.6403C98.6086 26.2685 78.1516 12.6889 56.0857 17.3448C54.0746 17.7328 48.2707 19.2653 41.1454 22.2916L86.5 54.5L56.0857 48.7718Z" fill="#FFD23E" stroke="#FFD23E"/>
</svg>
